<svg preserveAspectRatio="none" width="100%" height="100%" overflow="visible" style="display: block;" viewBox="0 0 207.391 33.6204" fill="none" xmlns="http://www.w3.org/2000/svg">
<g id="pro&#209;&#129;&#209;&#130;&#209;&#128;&#208;&#176;&#208;&#189;&#209;&#129;&#209;&#130;&#208;&#178;&#208;&#190;">
<g id="Vector" filter="url(#filter0_d_0_4)">
<path d="M191.068 22.5824C190.192 22.5824 189.424 22.4279 188.765 22.1188C188.106 21.7994 187.554 21.3718 187.111 20.8361C186.668 20.3003 186.334 19.6873 186.107 18.9971C185.891 18.3068 185.782 17.5804 185.782 16.818C185.782 16.0659 185.891 15.3448 186.107 14.6545C186.334 13.9539 186.668 13.3357 187.111 12.8C187.554 12.2642 188.106 11.8367 188.765 11.5173C189.424 11.1979 190.192 11.0382 191.068 11.0382C191.943 11.0382 192.711 11.1979 193.37 11.5173C194.03 11.8367 194.581 12.2642 195.024 12.8C195.467 13.3357 195.797 13.9539 196.013 14.6545C196.24 15.3448 196.353 16.0659 196.353 16.818C196.353 17.5804 196.24 18.3068 196.013 18.9971C195.797 19.6873 195.467 20.3003 195.024 20.8361C194.581 21.3718 194.03 21.7994 193.37 22.1188C192.711 22.4279 191.943 22.5824 191.068 22.5824ZM191.068 21.3615C191.737 21.3615 192.314 21.2327 192.798 20.9752C193.283 20.7073 193.679 20.357 193.988 19.9243C194.298 19.4916 194.524 19.0074 194.668 18.4716C194.813 17.9256 194.885 17.3744 194.885 16.818C194.885 16.2617 194.813 15.7156 194.668 15.1799C194.524 14.6339 194.298 14.1445 193.988 13.7118C193.679 13.2791 193.283 12.9339 192.798 12.6764C192.314 12.4085 191.737 12.2745 191.068 12.2745C190.398 12.2745 189.821 12.4085 189.337 12.6764C188.853 12.9339 188.456 13.2791 188.147 13.7118C187.838 14.1445 187.611 14.6339 187.467 15.1799C187.323 15.7156 187.25 16.2617 187.25 16.818C187.25 17.3744 187.323 17.9256 187.467 18.4716C187.611 19.0074 187.838 19.4916 188.147 19.9243C188.456 20.357 188.853 20.7073 189.337 20.9752C189.821 21.2327 190.398 21.3615 191.068 21.3615Z" fill="var(--fill-0, white)"/>
</g>
<g id="Vector_2" filter="url(#filter1_d_0_4)">
<path d="M170.253 12.1836C170.253 11.6959 170.649 11.3006 171.136 11.3006H174.256C174.493 11.3006 174.745 11.3057 175.013 11.316C175.291 11.316 175.564 11.3315 175.832 11.3624C176.1 11.383 176.352 11.4191 176.589 11.4706C176.826 11.5221 177.022 11.5993 177.176 11.7024C177.537 11.9187 177.841 12.2175 178.088 12.5987C178.346 12.9798 178.474 13.4486 178.474 14.0049C178.474 14.5921 178.33 15.1021 178.042 15.5348C177.766 15.9536 177.369 16.2661 176.85 16.4722C176.842 16.4753 176.836 16.483 176.836 16.4915C176.836 16.5013 176.843 16.5098 176.853 16.5118C177.525 16.6576 178.039 16.9654 178.397 17.4355C178.758 17.9094 178.938 18.4863 178.938 19.1663C178.938 19.568 178.866 19.9595 178.722 20.3407C178.577 20.7219 178.361 21.0619 178.073 21.3606C177.794 21.6491 177.444 21.886 177.022 22.0715C176.61 22.2466 176.131 22.3342 175.585 22.3342H171.136C170.649 22.3342 170.253 21.9388 170.253 21.4511V12.1836ZM175.399 21.0979C176.048 21.0979 176.553 20.9228 176.914 20.5725C177.285 20.2222 177.47 19.738 177.47 19.1199C177.47 18.7593 177.403 18.4606 177.269 18.2236C177.135 17.9867 176.955 17.8012 176.728 17.6673C176.512 17.5231 176.259 17.4252 175.971 17.3737C175.683 17.3119 175.384 17.281 175.075 17.281H172.604C172.117 17.281 171.721 17.6763 171.721 18.164V20.2149C171.721 20.7026 172.117 21.0979 172.604 21.0979H175.399ZM174.657 16.0447C175.492 16.0447 176.089 15.9005 176.45 15.612C176.821 15.3133 177.006 14.8703 177.006 14.2831C177.006 13.9019 176.945 13.598 176.821 13.3713C176.697 13.1344 176.527 12.9541 176.311 12.8304C176.095 12.7068 175.842 12.6296 175.554 12.5987C175.276 12.5574 174.977 12.5368 174.657 12.5368H172.604C172.117 12.5368 171.721 12.9322 171.721 13.4199V15.1617C171.721 15.6494 172.117 16.0447 172.604 16.0447H174.657Z" fill="var(--fill-0, white)"/>
</g>
<g id="Vector_3" filter="url(#filter2_d_0_4)">
<path d="M158.323 13.4199C158.323 12.9322 157.928 12.5368 157.44 12.5368H155.264C154.922 12.5368 154.645 12.2601 154.645 11.9187C154.645 11.5773 154.922 11.3006 155.264 11.3006H162.851C163.192 11.3006 163.469 11.5773 163.469 11.9187C163.469 12.2601 163.192 12.5368 162.851 12.5368H160.674C160.187 12.5368 159.791 12.9322 159.791 13.4199V21.6001C159.791 22.0055 159.463 22.3342 159.057 22.3342C158.652 22.3342 158.323 22.0055 158.323 21.6001V13.4199Z" fill="var(--fill-0, white)"/>
</g>
<g id="Vector_4" filter="url(#filter3_d_0_4)">
<path d="M143.661 22.5824C142.806 22.5824 142.059 22.4382 141.42 22.1497C140.781 21.8509 140.25 21.4439 139.828 20.9288C139.406 20.4137 139.086 19.8058 138.87 19.1052C138.664 18.4047 138.561 17.6526 138.561 16.8489C138.561 16.0453 138.674 15.2932 138.901 14.5927C139.127 13.8818 139.457 13.2636 139.89 12.7382C140.333 12.2127 140.879 11.8006 141.528 11.5018C142.177 11.1928 142.929 11.0382 143.784 11.0382C144.361 11.0382 144.907 11.1155 145.422 11.27C145.938 11.4246 146.396 11.6512 146.798 11.95C147.2 12.2488 147.534 12.6248 147.802 13.0782C147.935 13.2968 148.044 13.533 148.131 13.7868C148.279 14.2169 147.922 14.6236 147.467 14.6236C147.113 14.6236 146.818 14.3709 146.686 14.0422C146.487 13.543 146.179 13.1495 145.762 12.8618C145.206 12.4703 144.542 12.2745 143.769 12.2745C143.109 12.2745 142.543 12.3982 142.069 12.6454C141.605 12.8927 141.219 13.2275 140.91 13.65C140.611 14.0621 140.39 14.536 140.245 15.0717C140.101 15.6075 140.029 16.1638 140.029 16.7408C140.029 17.3692 140.101 17.9668 140.245 18.5334C140.39 19.0898 140.611 19.5792 140.91 20.0016C141.219 20.4137 141.61 20.7434 142.084 20.9906C142.558 21.2379 143.125 21.3615 143.784 21.3615C144.258 21.3615 144.686 21.2843 145.067 21.1297C145.448 20.9649 145.773 20.7434 146.041 20.4652C146.319 20.1767 146.535 19.8367 146.69 19.4452C146.766 19.2518 146.827 19.0508 146.873 18.8422C146.955 18.4731 147.261 18.178 147.639 18.178C148.065 18.178 148.402 18.5482 148.313 18.9648C148.091 19.9927 147.653 20.8174 146.999 21.4388C146.195 22.2012 145.082 22.5824 143.661 22.5824Z" fill="var(--fill-0, white)"/>
</g>
<g id="Vector_5" filter="url(#filter4_d_0_4)">
<path d="M122.387 12.0346C122.387 11.6292 122.715 11.3006 123.121 11.3006C123.526 11.3006 123.855 11.6292 123.855 12.0346V15.1617C123.855 15.6494 124.25 16.0447 124.738 16.0447H128.782C129.27 16.0447 129.665 15.6494 129.665 15.1617V12.0346C129.665 11.6292 129.994 11.3006 130.399 11.3006C130.804 11.3006 131.133 11.6292 131.133 12.0346V21.6001C131.133 22.0055 130.804 22.3342 130.399 22.3342C129.994 22.3342 129.665 22.0055 129.665 21.6001V18.164C129.665 17.6763 129.27 17.281 128.782 17.281H124.738C124.25 17.281 123.855 17.6763 123.855 18.164V21.6001C123.855 22.0055 123.526 22.3342 123.121 22.3342C122.715 22.3342 122.387 22.0055 122.387 21.6001V12.0346Z" fill="var(--fill-0, white)"/>
</g>
<g id="Vector_6" filter="url(#filter5_d_0_4)">
<path d="M109.583 11.8632C109.715 11.524 110.042 11.3006 110.406 11.3006H110.822C111.185 11.3006 111.512 11.5235 111.644 11.8622L115.337 21.3121C115.529 21.8035 115.166 22.3342 114.639 22.3342C114.324 22.3342 114.042 22.1368 113.934 21.8404L113.119 19.5936C112.993 19.2443 112.661 19.0117 112.289 19.0117H108.855C108.486 19.0117 108.156 19.2411 108.027 19.5868L107.173 21.8817C107.072 22.1537 106.813 22.3342 106.522 22.3342C106.033 22.3342 105.697 21.8428 105.875 21.3873L109.583 11.8632ZM111.191 17.7755C111.802 17.7755 112.228 17.1704 112.023 16.5953L110.611 12.6441C110.608 12.6354 110.599 12.6296 110.59 12.6296C110.581 12.6296 110.573 12.6353 110.57 12.644L109.135 16.5909C108.926 17.1667 109.353 17.7755 109.965 17.7755H111.191Z" fill="var(--fill-0, white)"/>
</g>
<g id="Vector_7" filter="url(#filter6_d_0_4)">
<path d="M91.221 12.1836C91.221 11.6959 91.6164 11.3006 92.104 11.3006H96.0579C97.1808 11.3006 98.0256 11.589 98.5922 12.166C99.1588 12.7326 99.4421 13.531 99.4421 14.5612C99.4421 15.5914 99.1588 16.395 98.5922 16.9719C98.0256 17.5385 97.1808 17.8218 96.0579 17.8218H93.5721C93.0844 17.8218 92.6891 18.2172 92.6891 18.7049V21.6001C92.6891 22.0055 92.3604 22.3342 91.955 22.3342C91.5496 22.3342 91.221 22.0055 91.221 21.6001V12.1836ZM95.5634 16.5856C96.3978 16.5856 97.0057 16.4156 97.3868 16.0756C97.7783 15.7253 97.9741 15.2205 97.9741 14.5612C97.9741 13.9019 97.7783 13.4022 97.3868 13.0622C97.0057 12.712 96.3978 12.5368 95.5634 12.5368H93.5721C93.0844 12.5368 92.6891 12.9322 92.6891 13.4199V15.7025C92.6891 16.1902 93.0844 16.5856 93.5721 16.5856H95.5634Z" fill="var(--fill-0, white)"/>
</g>
<g id="Vector_8" filter="url(#filter7_d_0_4)">
<path d="M79.291 13.4199C79.291 12.9322 78.8956 12.5368 78.408 12.5368H76.2313C75.8899 12.5368 75.6131 12.2601 75.6131 11.9187C75.6131 11.5773 75.8899 11.3006 76.2313 11.3006H83.8188C84.1602 11.3006 84.4369 11.5773 84.4369 11.9187C84.4369 12.2601 84.1602 12.5368 83.8188 12.5368H81.6421C81.1544 12.5368 80.7591 12.9322 80.7591 13.4199V21.6001C80.7591 22.0055 80.4304 22.3342 80.025 22.3342C79.6196 22.3342 79.291 22.0055 79.291 21.6001V13.4199Z" fill="var(--fill-0, white)"/>
</g>
<g id="Vector_9" filter="url(#filter8_d_0_4)">
<path d="M64.6283 22.5822C63.7732 22.5822 63.0263 22.4379 62.3875 22.1495C61.7487 21.8507 61.2181 21.4437 60.7957 20.9286C60.3733 20.4135 60.0539 19.8056 59.8376 19.105C59.6315 18.4044 59.5285 17.6523 59.5285 16.8487C59.5285 16.0451 59.6418 15.293 59.8685 14.5924C60.0952 13.8815 60.4248 13.2634 60.8575 12.7379C61.3006 12.2125 61.8466 11.8004 62.4957 11.5016C63.1447 11.1925 63.8968 11.038 64.752 11.038C65.3289 11.038 65.875 11.1153 66.3901 11.2698C66.9052 11.4244 67.3637 11.651 67.7655 11.9498C68.1673 12.2486 68.5021 12.6246 68.77 13.0779C68.9022 13.2966 69.0118 13.5328 69.0989 13.7866C69.2464 14.2167 68.8893 14.6233 68.4346 14.6233C68.0807 14.6233 67.7852 14.3707 67.6539 14.042C67.4545 13.5428 67.1466 13.1493 66.7301 12.8616C66.1737 12.4701 65.5092 12.2743 64.7365 12.2743C64.0771 12.2743 63.5105 12.398 63.0366 12.6452C62.5729 12.8925 62.1866 13.2273 61.8775 13.6497C61.5787 14.0618 61.3572 14.5358 61.213 15.0715C61.0688 15.6072 60.9966 16.1636 60.9966 16.7405C60.9966 17.369 61.0688 17.9666 61.213 18.5332C61.3572 19.0896 61.5787 19.5789 61.8775 20.0013C62.1866 20.4135 62.5781 20.7431 63.052 20.9904C63.5259 21.2377 64.0926 21.3613 64.752 21.3613C65.2259 21.3613 65.6535 21.284 66.0347 21.1295C66.4159 20.9646 66.7404 20.7431 67.0083 20.465C67.2864 20.1765 67.5028 19.8365 67.6573 19.445C67.7337 19.2515 67.795 19.0505 67.8411 18.842C67.9229 18.4729 68.229 18.1778 68.607 18.1778C69.0331 18.1778 69.3702 18.548 69.2804 18.9646C69.059 19.9925 68.621 20.8171 67.9664 21.4386C67.1628 22.201 66.0501 22.5822 64.6283 22.5822Z" fill="var(--fill-0, white)"/>
</g>
<g id="Vector_10" filter="url(#filter9_d_0_4)">
<path d="M43.6143 16.818C43.6143 17.3744 43.6864 17.9256 43.8307 18.4716C43.9749 19.0074 44.2016 19.4916 44.5107 19.9243C44.8197 20.357 45.2164 20.7073 45.7006 20.9752C46.1849 21.2327 46.7618 21.3615 47.4315 21.3615C48.1012 21.3615 48.6781 21.2327 49.1623 20.9752C49.6466 20.7073 50.0432 20.357 50.3523 19.9243C50.6614 19.4916 50.888 19.0074 51.0323 18.4716C51.1765 17.9256 51.2486 17.3744 51.2486 16.818C51.2486 16.2617 51.1765 15.7156 51.0323 15.1799C50.888 14.6339 50.6614 14.1445 50.3523 13.7118C50.0432 13.2791 49.6466 12.9339 49.1623 12.6764C48.6781 12.4085 48.1012 12.2745 47.4315 12.2745C46.7618 12.2745 46.1849 12.4085 45.7006 12.6764C45.2164 12.9339 44.8197 13.2791 44.5107 13.7118C44.2016 14.1445 43.9749 14.6339 43.8307 15.1799C43.6864 15.7156 43.6143 16.2617 43.6143 16.818ZM42.1462 16.818C42.1462 16.0659 42.2544 15.3448 42.4707 14.6545C42.6974 13.9539 43.0322 13.3357 43.4752 12.8C43.9183 12.2642 44.4695 11.8367 45.1288 11.5173C45.7882 11.1979 46.5558 11.0382 47.4315 11.0382C48.3072 11.0382 49.0748 11.1979 49.7341 11.5173C50.3935 11.8367 50.9447 12.2642 51.3877 12.8C51.8307 13.3357 52.1604 13.9539 52.3768 14.6545C52.6034 15.3448 52.7168 16.0659 52.7168 16.818C52.7168 17.5701 52.6034 18.2965 52.3768 18.9971C52.1604 19.6873 51.8307 20.3003 51.3877 20.8361C50.9447 21.3718 50.3935 21.7994 49.7341 22.1188C49.0748 22.4279 48.3072 22.5824 47.4315 22.5824C46.5558 22.5824 45.7882 22.4279 45.1288 22.1188C44.4695 21.7994 43.9183 21.3718 43.4752 20.8361C43.0322 20.3003 42.6974 19.6873 42.4707 18.9971C42.2544 18.2965 42.1462 17.5701 42.1462 16.818Z" fill="var(--fill-0, white)"/>
</g>
<g id="Vector_11" filter="url(#filter10_d_0_4)">
<path d="M26.6244 12.1836C26.6244 11.6959 27.0197 11.3006 27.5074 11.3006H31.8166C32.8675 11.3006 33.6865 11.5581 34.2737 12.0732C34.8712 12.5883 35.17 13.294 35.17 14.1903C35.17 14.86 35.0155 15.4472 34.7064 15.952C34.4098 16.4532 33.9303 16.797 33.2681 16.9834C33.2597 16.9857 33.2538 16.9934 33.2538 17.0022C33.2538 17.0115 33.2604 17.0195 33.2696 17.0214C33.5817 17.0835 33.8339 17.1855 34.0264 17.3273C34.2325 17.4716 34.3922 17.6467 34.5055 17.8527C34.6291 18.0485 34.7167 18.27 34.7682 18.5172C34.83 18.7645 34.8764 19.022 34.9073 19.2899C34.9279 19.5577 34.9433 19.8307 34.9536 20.1089C34.9639 20.3871 34.9897 20.6601 35.0309 20.9279C35.0721 21.1958 35.1288 21.4533 35.2009 21.7006C35.2962 21.9746 35.1159 22.3342 34.8259 22.3342H34.1994C34.0204 22.3342 33.8398 22.2617 33.7707 22.0965C33.7422 22.0286 33.7193 21.9532 33.7019 21.8706C33.671 21.6748 33.6504 21.4585 33.6401 21.2215C33.6298 20.9743 33.6195 20.7116 33.6092 20.4334C33.5989 20.1553 33.568 19.8823 33.5165 19.6144C33.4753 19.3465 33.4238 19.0941 33.362 18.8572C33.3001 18.6099 33.2023 18.3988 33.0683 18.2236C32.9344 18.0382 32.7593 17.8939 32.5429 17.7909C32.3266 17.6776 32.0381 17.6209 31.6776 17.6209H28.9755C28.4878 17.6209 28.0924 18.0163 28.0924 18.504V21.6001C28.0924 22.0055 27.7638 22.3342 27.3584 22.3342C26.953 22.3342 26.6244 22.0055 26.6244 21.6001V12.1836ZM31.1522 16.3847C31.4921 16.3847 31.8166 16.3589 32.1257 16.3074C32.4348 16.2559 32.7026 16.158 32.9293 16.0138C33.1662 15.8593 33.3517 15.6584 33.4856 15.4111C33.6298 15.1536 33.7019 14.8239 33.7019 14.4221C33.7019 13.8658 33.5474 13.4125 33.2383 13.0622C32.9293 12.712 32.4296 12.5368 31.7394 12.5368H28.9755C28.4878 12.5368 28.0924 12.9322 28.0924 13.4199V15.5016C28.0924 15.9893 28.4878 16.3847 28.9755 16.3847H31.1522Z" fill="var(--fill-0, white)"/>
</g>
<g id="Vector_12" filter="url(#filter11_d_0_4)">
<path d="M12.5061 15.7025C12.5061 16.1902 12.9014 16.5856 13.3891 16.5856H15.3804C16.2148 16.5959 16.8226 16.4259 17.2038 16.0756C17.5953 15.7253 17.7911 15.2205 17.7911 14.5612C17.7911 13.9019 17.5953 13.4022 17.2038 13.0622C16.8226 12.712 16.2148 12.5368 15.3804 12.5368H13.3891C12.9014 12.5368 12.5061 12.9322 12.5061 13.4199V15.7025ZM11.038 12.1836C11.038 11.6959 11.4334 11.3006 11.921 11.3006H15.8749C16.9875 11.3006 17.8271 11.589 18.3937 12.166C18.9706 12.7326 19.2591 13.531 19.2591 14.5612C19.2591 15.5914 18.9706 16.395 18.3937 16.9719C17.8271 17.5488 16.9875 17.8321 15.8749 17.8218H13.3891C12.9014 17.8218 12.5061 18.2172 12.5061 18.7049V21.6001C12.5061 22.0055 12.1774 22.3342 11.772 22.3342C11.3666 22.3342 11.038 22.0055 11.038 21.6001V12.1836Z" fill="var(--fill-0, white)"/>
</g>
</g>
<defs>
<filter id="filter0_d_0_4" x="174.744" y="0.000224224" width="32.6466" height="33.6202" filterUnits="userSpaceOnUse" color-interpolation-filters="sRGB">
<feFlood flood-opacity="0" result="BackgroundImageFix"/>
<feColorMatrix in="SourceAlpha" type="matrix" values="0 0 0 0 0 0 0 0 0 0 0 0 0 0 0 0 0 0 127 0" result="hardAlpha"/>
<feOffset/>
<feGaussianBlur stdDeviation="5.519"/>
<feComposite in2="hardAlpha" operator="out"/>
<feColorMatrix type="matrix" values="0 0 0 0 0 0 0 0 0 0 0 0 0 0 0 0 0 0 0.6 0"/>
<feBlend mode="normal" in2="BackgroundImageFix" result="effect1_dropShadow_0_4"/>
<feBlend mode="normal" in="SourceGraphic" in2="effect1_dropShadow_0_4" result="shape"/>
</filter>
<filter id="filter1_d_0_4" x="159.215" y="0.262581" width="30.7607" height="33.1096" filterUnits="userSpaceOnUse" color-interpolation-filters="sRGB">
<feFlood flood-opacity="0" result="BackgroundImageFix"/>
<feColorMatrix in="SourceAlpha" type="matrix" values="0 0 0 0 0 0 0 0 0 0 0 0 0 0 0 0 0 0 127 0" result="hardAlpha"/>
<feOffset/>
<feGaussianBlur stdDeviation="5.519"/>
<feComposite in2="hardAlpha" operator="out"/>
<feColorMatrix type="matrix" values="0 0 0 0 0 0 0 0 0 0 0 0 0 0 0 0 0 0 0.6 0"/>
<feBlend mode="normal" in2="BackgroundImageFix" result="effect1_dropShadow_0_4"/>
<feBlend mode="normal" in="SourceGraphic" in2="effect1_dropShadow_0_4" result="shape"/>
</filter>
<filter id="filter2_d_0_4" x="143.607" y="0.262581" width="30.8998" height="33.1096" filterUnits="userSpaceOnUse" color-interpolation-filters="sRGB">
<feFlood flood-opacity="0" result="BackgroundImageFix"/>
<feColorMatrix in="SourceAlpha" type="matrix" values="0 0 0 0 0 0 0 0 0 0 0 0 0 0 0 0 0 0 127 0" result="hardAlpha"/>
<feOffset/>
<feGaussianBlur stdDeviation="5.519"/>
<feComposite in2="hardAlpha" operator="out"/>
<feColorMatrix type="matrix" values="0 0 0 0 0 0 0 0 0 0 0 0 0 0 0 0 0 0 0.6 0"/>
<feBlend mode="normal" in2="BackgroundImageFix" result="effect1_dropShadow_0_4"/>
<feBlend mode="normal" in="SourceGraphic" in2="effect1_dropShadow_0_4" result="shape"/>
</filter>
<filter id="filter3_d_0_4" x="127.523" y="0.000224224" width="31.8425" height="33.6202" filterUnits="userSpaceOnUse" color-interpolation-filters="sRGB">
<feFlood flood-opacity="0" result="BackgroundImageFix"/>
<feColorMatrix in="SourceAlpha" type="matrix" values="0 0 0 0 0 0 0 0 0 0 0 0 0 0 0 0 0 0 127 0" result="hardAlpha"/>
<feOffset/>
<feGaussianBlur stdDeviation="5.519"/>
<feComposite in2="hardAlpha" operator="out"/>
<feColorMatrix type="matrix" values="0 0 0 0 0 0 0 0 0 0 0 0 0 0 0 0 0 0 0.6 0"/>
<feBlend mode="normal" in2="BackgroundImageFix" result="effect1_dropShadow_0_4"/>
<feBlend mode="normal" in="SourceGraphic" in2="effect1_dropShadow_0_4" result="shape"/>
</filter>
<filter id="filter4_d_0_4" x="111.349" y="0.262581" width="30.8225" height="33.1096" filterUnits="userSpaceOnUse" color-interpolation-filters="sRGB">
<feFlood flood-opacity="0" result="BackgroundImageFix"/>
<feColorMatrix in="SourceAlpha" type="matrix" values="0 0 0 0 0 0 0 0 0 0 0 0 0 0 0 0 0 0 127 0" result="hardAlpha"/>
<feOffset/>
<feGaussianBlur stdDeviation="5.519"/>
<feComposite in2="hardAlpha" operator="out"/>
<feColorMatrix type="matrix" values="0 0 0 0 0 0 0 0 0 0 0 0 0 0 0 0 0 0 0.6 0"/>
<feBlend mode="normal" in2="BackgroundImageFix" result="effect1_dropShadow_0_4"/>
<feBlend mode="normal" in="SourceGraphic" in2="effect1_dropShadow_0_4" result="shape"/>
</filter>
<filter id="filter5_d_0_4" x="94.7888" y="0.262581" width="31.6381" height="33.1096" filterUnits="userSpaceOnUse" color-interpolation-filters="sRGB">
<feFlood flood-opacity="0" result="BackgroundImageFix"/>
<feColorMatrix in="SourceAlpha" type="matrix" values="0 0 0 0 0 0 0 0 0 0 0 0 0 0 0 0 0 0 127 0" result="hardAlpha"/>
<feOffset/>
<feGaussianBlur stdDeviation="5.519"/>
<feComposite in2="hardAlpha" operator="out"/>
<feColorMatrix type="matrix" values="0 0 0 0 0 0 0 0 0 0 0 0 0 0 0 0 0 0 0.6 0"/>
<feBlend mode="normal" in2="BackgroundImageFix" result="effect1_dropShadow_0_4"/>
<feBlend mode="normal" in="SourceGraphic" in2="effect1_dropShadow_0_4" result="shape"/>
</filter>
<filter id="filter6_d_0_4" x="80.183" y="0.262581" width="30.2971" height="33.1096" filterUnits="userSpaceOnUse" color-interpolation-filters="sRGB">
<feFlood flood-opacity="0" result="BackgroundImageFix"/>
<feColorMatrix in="SourceAlpha" type="matrix" values="0 0 0 0 0 0 0 0 0 0 0 0 0 0 0 0 0 0 127 0" result="hardAlpha"/>
<feOffset/>
<feGaussianBlur stdDeviation="5.519"/>
<feComposite in2="hardAlpha" operator="out"/>
<feColorMatrix type="matrix" values="0 0 0 0 0 0 0 0 0 0 0 0 0 0 0 0 0 0 0.6 0"/>
<feBlend mode="normal" in2="BackgroundImageFix" result="effect1_dropShadow_0_4"/>
<feBlend mode="normal" in="SourceGraphic" in2="effect1_dropShadow_0_4" result="shape"/>
</filter>
<filter id="filter7_d_0_4" x="64.5751" y="0.262581" width="30.8998" height="33.1096" filterUnits="userSpaceOnUse" color-interpolation-filters="sRGB">
<feFlood flood-opacity="0" result="BackgroundImageFix"/>
<feColorMatrix in="SourceAlpha" type="matrix" values="0 0 0 0 0 0 0 0 0 0 0 0 0 0 0 0 0 0 127 0" result="hardAlpha"/>
<feOffset/>
<feGaussianBlur stdDeviation="5.519"/>
<feComposite in2="hardAlpha" operator="out"/>
<feColorMatrix type="matrix" values="0 0 0 0 0 0 0 0 0 0 0 0 0 0 0 0 0 0 0.6 0"/>
<feBlend mode="normal" in2="BackgroundImageFix" result="effect1_dropShadow_0_4"/>
<feBlend mode="normal" in="SourceGraphic" in2="effect1_dropShadow_0_4" result="shape"/>
</filter>
<filter id="filter8_d_0_4" x="48.4905" y="1.78639e-07" width="31.8425" height="33.6202" filterUnits="userSpaceOnUse" color-interpolation-filters="sRGB">
<feFlood flood-opacity="0" result="BackgroundImageFix"/>
<feColorMatrix in="SourceAlpha" type="matrix" values="0 0 0 0 0 0 0 0 0 0 0 0 0 0 0 0 0 0 127 0" result="hardAlpha"/>
<feOffset/>
<feGaussianBlur stdDeviation="5.519"/>
<feComposite in2="hardAlpha" operator="out"/>
<feColorMatrix type="matrix" values="0 0 0 0 0 0 0 0 0 0 0 0 0 0 0 0 0 0 0.6 0"/>
<feBlend mode="normal" in2="BackgroundImageFix" result="effect1_dropShadow_0_4"/>
<feBlend mode="normal" in="SourceGraphic" in2="effect1_dropShadow_0_4" result="shape"/>
</filter>
<filter id="filter9_d_0_4" x="31.1082" y="0.000224224" width="32.6466" height="33.6202" filterUnits="userSpaceOnUse" color-interpolation-filters="sRGB">
<feFlood flood-opacity="0" result="BackgroundImageFix"/>
<feColorMatrix in="SourceAlpha" type="matrix" values="0 0 0 0 0 0 0 0 0 0 0 0 0 0 0 0 0 0 127 0" result="hardAlpha"/>
<feOffset/>
<feGaussianBlur stdDeviation="5.519"/>
<feComposite in2="hardAlpha" operator="out"/>
<feColorMatrix type="matrix" values="0 0 0 0 0 0 0 0 0 0 0 0 0 0 0 0 0 0 0.6 0"/>
<feBlend mode="normal" in2="BackgroundImageFix" result="effect1_dropShadow_0_4"/>
<feBlend mode="normal" in="SourceGraphic" in2="effect1_dropShadow_0_4" result="shape"/>
</filter>
<filter id="filter10_d_0_4" x="15.5864" y="0.262581" width="30.6782" height="33.1096" filterUnits="userSpaceOnUse" color-interpolation-filters="sRGB">
<feFlood flood-opacity="0" result="BackgroundImageFix"/>
<feColorMatrix in="SourceAlpha" type="matrix" values="0 0 0 0 0 0 0 0 0 0 0 0 0 0 0 0 0 0 127 0" result="hardAlpha"/>
<feOffset/>
<feGaussianBlur stdDeviation="5.519"/>
<feComposite in2="hardAlpha" operator="out"/>
<feColorMatrix type="matrix" values="0 0 0 0 0 0 0 0 0 0 0 0 0 0 0 0 0 0 0.6 0"/>
<feBlend mode="normal" in2="BackgroundImageFix" result="effect1_dropShadow_0_4"/>
<feBlend mode="normal" in="SourceGraphic" in2="effect1_dropShadow_0_4" result="shape"/>
</filter>
<filter id="filter11_d_0_4" x="6.44941e-08" y="0.262581" width="30.2971" height="33.1096" filterUnits="userSpaceOnUse" color-interpolation-filters="sRGB">
<feFlood flood-opacity="0" result="BackgroundImageFix"/>
<feColorMatrix in="SourceAlpha" type="matrix" values="0 0 0 0 0 0 0 0 0 0 0 0 0 0 0 0 0 0 127 0" result="hardAlpha"/>
<feOffset/>
<feGaussianBlur stdDeviation="5.519"/>
<feComposite in2="hardAlpha" operator="out"/>
<feColorMatrix type="matrix" values="0 0 0 0 0 0 0 0 0 0 0 0 0 0 0 0 0 0 0.6 0"/>
<feBlend mode="normal" in2="BackgroundImageFix" result="effect1_dropShadow_0_4"/>
<feBlend mode="normal" in="SourceGraphic" in2="effect1_dropShadow_0_4" result="shape"/>
</filter>
</defs>
</svg>
