<svg preserveAspectRatio="none" width="100%" height="100%" overflow="visible" style="display: block;" viewBox="0 0 1896 1891" fill="none" xmlns="http://www.w3.org/2000/svg">
<g id="Radar">
<g id="Ellipse 17">
<mask id="path-1-inside-1_0_11" fill="white">
<path d="M1896 945.5C1896 1069.67 1871.48 1192.61 1823.84 1307.33C1776.2 1422.04 1706.37 1526.27 1618.34 1614.07C1530.31 1701.87 1425.8 1771.51 1310.78 1819.03C1195.77 1866.54 1072.49 1891 948 1891C823.507 1891 700.233 1866.54 585.216 1819.03C470.2 1771.51 365.693 1701.87 277.663 1614.07C189.633 1526.27 119.804 1422.04 72.1624 1307.33C24.5209 1192.61 0.000176143 1069.67 0.000165317 945.5L948 945.5L1896 945.5Z"/>
</mask>
<path d="M1896 945.5C1896 1069.67 1871.48 1192.61 1823.84 1307.33C1776.2 1422.04 1706.37 1526.27 1618.34 1614.07C1530.31 1701.87 1425.8 1771.51 1310.78 1819.03C1195.77 1866.54 1072.49 1891 948 1891C823.507 1891 700.233 1866.54 585.216 1819.03C470.2 1771.51 365.693 1701.87 277.663 1614.07C189.633 1526.27 119.804 1422.04 72.1624 1307.33C24.5209 1192.61 0.000176143 1069.67 0.000165317 945.5L948 945.5L1896 945.5Z" fill="var(--fill-0, #FEFEFE)" fill-opacity="0.1" stroke="var(--stroke-0, #FEFEFE)" stroke-opacity="0.3" stroke-width="4" mask="url(#path-1-inside-1_0_11)"/>
</g>
<g id="Ellipse 18">
<mask id="path-2-inside-2_0_11" fill="white">
<path d="M1751 945.5C1751 1050.49 1730.31 1154.46 1690.1 1251.46C1649.9 1348.46 1590.97 1436.59 1516.69 1510.83C1442.4 1585.07 1354.21 1643.96 1257.15 1684.14C1160.09 1724.32 1056.06 1745 951 1745C845.943 1745 741.914 1724.32 644.853 1684.14C547.793 1643.96 459.602 1585.07 385.315 1510.83C311.028 1436.59 252.1 1348.46 211.897 1251.46C171.693 1154.46 151 1050.49 151 945.5L951 945.5L1751 945.5Z"/>
</mask>
<path d="M1751 945.5C1751 1050.49 1730.31 1154.46 1690.1 1251.46C1649.9 1348.46 1590.97 1436.59 1516.69 1510.83C1442.4 1585.07 1354.21 1643.96 1257.15 1684.14C1160.09 1724.32 1056.06 1745 951 1745C845.943 1745 741.914 1724.32 644.853 1684.14C547.793 1643.96 459.602 1585.07 385.315 1510.83C311.028 1436.59 252.1 1348.46 211.897 1251.46C171.693 1154.46 151 1050.49 151 945.5L951 945.5L1751 945.5Z" fill="var(--fill-0, #FEFEFE)" fill-opacity="0.1" stroke="var(--stroke-0, #FEFEFE)" stroke-opacity="0.3" stroke-width="4" mask="url(#path-2-inside-2_0_11)"/>
</g>
<g id="Ellipse 19">
<mask id="path-3-inside-3_0_11" fill="white">
<path d="M1609 945.5C1609 1031.84 1591.98 1117.34 1558.91 1197.11C1525.85 1276.89 1477.38 1349.37 1416.28 1410.42C1355.18 1471.48 1282.64 1519.91 1202.81 1552.95C1122.97 1585.99 1037.41 1603 951 1603C864.59 1603 779.027 1585.99 699.194 1552.95C619.362 1519.91 546.825 1471.48 485.724 1410.42C424.623 1349.37 376.155 1276.89 343.087 1197.11C310.02 1117.34 293 1031.84 293 945.5L951 945.5L1609 945.5Z"/>
</mask>
<path d="M1609 945.5C1609 1031.84 1591.98 1117.34 1558.91 1197.11C1525.85 1276.89 1477.38 1349.37 1416.28 1410.42C1355.18 1471.48 1282.64 1519.91 1202.81 1552.95C1122.97 1585.99 1037.41 1603 951 1603C864.59 1603 779.027 1585.99 699.194 1552.95C619.362 1519.91 546.825 1471.48 485.724 1410.42C424.623 1349.37 376.155 1276.89 343.087 1197.11C310.02 1117.34 293 1031.84 293 945.5L951 945.5L1609 945.5Z" fill="var(--fill-0, #FEFEFE)" fill-opacity="0.1" stroke="var(--stroke-0, #FEFEFE)" stroke-opacity="0.3" stroke-width="4" mask="url(#path-3-inside-3_0_11)"/>
</g>
</g>
</svg>
