<svg preserveAspectRatio="none" width="100%" height="100%" overflow="visible" style="display: block;" viewBox="0 0 4053.27 387.029" fill="none" xmlns="http://www.w3.org/2000/svg">
<g id="Graph">
<path id="Fill gradient" d="M62.3223 227.76L32.2315 269.918C13.3938 296.31 3.26806 327.926 3.26806 360.352V386H4053.27L3930.54 65.754C3922.59 45.0046 3893.7 43.7798 3884.02 63.7818L3808.18 220.5C3782.94 272.661 3726.98 302.631 3669.57 294.732C3637.32 290.294 3607.8 274.244 3586.53 249.592L3501.09 150.526C3486.17 133.224 3467.62 119.42 3446.76 110.092L3396.83 87.7628C3355.71 69.3755 3308.65 69.6983 3267.79 88.6479L3191.01 124.255L3049.56 206.472C3042.84 210.38 3035.83 213.779 3028.6 216.639L2931.73 254.961C2906.44 264.965 2878.98 268.169 2852.07 264.257L2775.91 253.184C2761.81 251.134 2747.49 251.03 2733.36 252.876L2629.75 266.408C2610.42 268.932 2590.78 267.804 2571.87 263.081L2530.14 252.66C2485.32 241.466 2437.83 250.764 2400.54 278.038L2377.67 294.76C2340.08 322.25 2292.16 331.467 2247.06 319.882L2202.8 308.514C2175.78 301.574 2147.39 302.022 2120.61 309.811L2094.99 317.261C2049.52 330.482 2000.51 322.29 1961.81 295.001L1907.06 256.393C1887.11 242.324 1864.14 233.144 1839.98 229.595L1768.14 219.039C1738.39 214.668 1710.54 201.776 1687.97 181.919L1673.25 168.981C1630.44 131.325 1569.01 123.518 1518.13 149.266C1474.71 171.245 1422.83 168.915 1381.47 143.255C1329.52 111.033 1262.51 116.076 1216.13 155.882L1194.07 174.809C1165.85 199.028 1129.89 212.342 1092.7 212.342H728.323C718.78 212.342 709.257 211.465 699.875 209.721L623.431 195.511C585.827 188.521 546.966 195.62 514.262 215.454L507.77 219.391C456.543 250.459 392.033 249.37 341.884 216.592L305.552 192.845C287.142 180.812 266.39 172.817 244.666 169.387L213.302 164.434C155.043 155.235 96.5878 179.752 62.3223 227.76Z" fill="url(#paint0_linear_0_8)"/>
<path id="Line" d="M3.26806 309.735L62.1587 226.292C96.3969 177.779 155.252 152.97 213.886 162.333L244.061 167.152C265.957 170.649 286.854 178.783 305.352 191.011L340.717 214.388C391.174 247.741 456.383 248.846 507.942 217.223L513.188 214.006C546.114 193.811 585.373 186.579 623.334 193.715L698.846 207.911C708.329 209.693 717.957 210.59 727.606 210.59H1090.79C1128.28 210.59 1164.51 197.062 1192.82 172.49L1214.76 153.446C1260.91 113.394 1328.03 108.345 1379.79 140.821C1421.01 166.684 1472.96 169.044 1516.28 146.871C1566.99 120.916 1628.43 128.758 1671 166.617L1685.77 179.751C1708.39 199.873 1736.39 212.961 1766.34 217.411L1837.38 227.967C1861.72 231.584 1884.85 240.919 1904.89 255.207L1958.9 293.727C1997.82 321.486 2047.34 329.821 2093.2 316.334L2117.52 309.183C2144.57 301.226 2173.28 300.769 2200.58 307.859L2243.5 319.01C2289 330.83 2337.41 321.454 2375.21 293.499L2397.13 277.285C2434.63 249.55 2482.59 240.091 2527.81 251.512L2568.37 261.755C2587.48 266.581 2607.33 267.734 2626.87 265.154L2729.73 251.567C2744.01 249.68 2758.5 249.786 2772.75 251.883L2848.06 262.956C2875.25 266.954 2903.02 263.683 2928.53 253.474L3024.8 214.96C3032.07 212.051 3039.11 208.598 3045.86 204.629L3187.08 121.614L3263.09 85.9656C3304.28 66.6428 3351.87 66.314 3393.33 85.0657L3442.43 107.273C3463.32 116.717 3481.86 130.656 3496.73 148.095L3582.06 248.151C3603.32 273.084 3632.99 289.35 3665.45 293.867C3722.61 301.822 3778.44 272.239 3803.95 220.472L3882.73 60.6376C3893.09 39.6171 3924.34 42.6255 3931.39 64.9749C3972.42 195.025 4004 219.595 4048.27 386" stroke="url(#paint1_linear_0_8)" stroke-width="8"/>
</g>
<defs>
<linearGradient id="paint0_linear_0_8" x1="2566.2" y1="180.605" x2="2569.88" y2="385.995" gradientUnits="userSpaceOnUse">
<stop stop-color="#0ABAB5" stop-opacity="0.6"/>
<stop offset="1" stop-color="#0ABAB5" stop-opacity="0"/>
</linearGradient>
<linearGradient id="paint1_linear_0_8" x1="2148.62" y1="310" x2="4037.79" y2="363.368" gradientUnits="userSpaceOnUse">
<stop stop-color="#055452" stop-opacity="0"/>
<stop offset="0.897798" stop-color="#0ABAB5"/>
<stop offset="1" stop-color="#078783" stop-opacity="0.5"/>
</linearGradient>
</defs>
</svg>
